<svg width="451" height="34" viewBox="0 0 451 34" fill="none" xmlns="http://www.w3.org/2000/svg">
<path d="M416.727 17.3281V31H414.773V1.70312H416.727V15.375H447.977V1.70312H449.93V31H447.977V17.3281H416.727Z" fill="black"/>
<path d="M391.055 29.0469C394.961 29.0469 396.914 27.0938 396.914 23.1875H398.867C398.867 28.3958 396.263 31 391.055 31H371.523C366.315 31 363.711 28.3958 363.711 23.1875V9.51562C363.711 4.30729 366.315 1.70312 371.523 1.70312H391.055C396.263 1.70312 398.867 4.30729 398.867 9.51562H396.914C396.914 5.60938 394.961 3.65625 391.055 3.65625H371.523C367.617 3.65625 365.664 5.60938 365.664 9.51562V23.1875C365.664 27.0938 367.617 29.0469 371.523 29.0469H391.055Z" fill="black"/>
<path d="M316.789 29.0469H349.992V31H314.836V1.70312H349.992V3.65625H316.789V15.375H348.039V17.3281H316.789V29.0469Z" fill="black"/>
<path d="M300.805 1.70312V3.65625H284.203V31H282.25V3.65625H265.648V1.70312H300.805Z" fill="black"/>
<path d="M225.992 31C220.784 31 218.18 28.3958 218.18 23.1875V9.51562C218.18 4.30729 220.784 1.70312 225.992 1.70312H245.523C250.732 1.70312 253.336 4.30729 253.336 9.51562V23.1875C253.336 28.3958 250.732 31 245.523 31H225.992ZM220.133 23.1875C220.133 27.0938 222.086 29.0469 225.992 29.0469H245.523C249.43 29.0469 251.383 27.0938 251.383 23.1875V9.51562C251.383 5.60938 249.43 3.65625 245.523 3.65625H225.992C222.086 3.65625 220.133 5.60938 220.133 9.51562V23.1875Z" fill="black"/>
<path d="M194.461 1.70312C199.669 1.70312 202.273 4.30729 202.273 9.51562C202.273 12.888 201.186 15.1667 199.012 16.3516C201.186 17.5365 202.273 19.8151 202.273 23.1875V31H200.32V23.1875C200.32 19.2812 198.367 17.3281 194.461 17.3281H169.07V31H167.117V1.70312H194.461ZM200.32 9.51562C200.32 5.60938 198.367 3.65625 194.461 3.65625H169.07V15.375H194.461C198.367 15.375 200.32 13.4219 200.32 9.51562Z" fill="black"/>
<path d="M143.984 1.70312C149.193 1.70312 151.797 4.30729 151.797 9.51562C151.797 14.724 149.193 17.3281 143.984 17.3281H118.594V31H116.641V1.70312H143.984ZM149.844 9.51562C149.844 5.60938 147.891 3.65625 143.984 3.65625H118.594V15.375H143.984C147.891 15.375 149.844 13.4219 149.844 9.51562Z" fill="black"/>
<path d="M68.4297 29.0469H101.633V31H66.4766V1.70312H101.633V3.65625H68.4297V15.375H99.6797V17.3281H68.4297V29.0469Z" fill="black"/>
<path d="M27.4844 20.5117L20.6484 31.4883L2.09375 1.70312H4.37891L20.6484 27.8359L26.3516 18.6953L15.7656 1.70312H18.0508L27.4844 16.8594L36.918 1.70312H39.2031L28.6172 18.6953L34.3203 27.8359L50.5898 1.70312H52.875L34.3203 31.4883L27.4844 20.5117Z" fill="black"/>
<path fill-rule="evenodd" clip-rule="evenodd" d="M417.727 32H413.773V0.703125H417.727V14.375H446.977V0.703125H450.93V32H446.977V18.3281H417.727V32ZM416.727 17.3281H447.977V31H449.93V1.70312H447.977V15.375H416.727V1.70312H414.773V31H416.727V17.3281Z" fill="black"/>
<path fill-rule="evenodd" clip-rule="evenodd" d="M395.914 22.1875H399.867V23.1875C399.867 25.9458 399.177 28.1982 397.621 29.754C396.065 31.3097 393.813 32 391.055 32H371.523C368.765 32 366.513 31.3097 364.957 29.754C363.401 28.1982 362.711 25.9458 362.711 23.1875V9.51562C362.711 6.75731 363.401 4.50491 364.957 2.94914C366.513 1.39338 368.765 0.703125 371.523 0.703125H391.055C393.813 0.703125 396.065 1.39338 397.621 2.94914C399.177 4.50491 399.867 6.75731 399.867 9.51562V10.5156H395.914V9.51562C395.914 7.71664 395.465 6.55108 394.742 5.8282C394.019 5.10532 392.854 4.65625 391.055 4.65625H371.523C369.724 4.65625 368.559 5.10532 367.836 5.8282C367.113 6.55108 366.664 7.71664 366.664 9.51562V23.1875C366.664 24.9865 367.113 26.152 367.836 26.8749C368.559 27.5978 369.724 28.0469 371.523 28.0469H391.055C392.854 28.0469 394.019 27.5978 394.742 26.8749C395.465 26.152 395.914 24.9865 395.914 23.1875V22.1875ZM398.833 24.1875C398.511 28.7292 395.918 31 391.055 31H371.523C366.315 31 363.711 28.3958 363.711 23.1875V9.51562C363.711 4.30729 366.315 1.70312 371.523 1.70312H391.055C395.918 1.70312 398.511 3.97396 398.833 8.51562C398.856 8.83755 398.867 9.17088 398.867 9.51562H396.914C396.914 5.60938 394.961 3.65625 391.055 3.65625H371.523C367.617 3.65625 365.664 5.60938 365.664 9.51562V23.1875C365.664 27.0938 367.617 29.0469 371.523 29.0469H391.055C394.961 29.0469 396.914 27.0938 396.914 23.1875H398.867C398.867 23.5322 398.856 23.8656 398.833 24.1875Z" fill="black"/>
<path fill-rule="evenodd" clip-rule="evenodd" d="M350.992 28.0469V32H313.836V0.703125H350.992V4.65625H317.789V14.375H349.039V18.3281H317.789V28.0469H350.992ZM316.789 29.0469V17.3281H348.039V15.375H316.789V3.65625H349.992V1.70312H314.836V31H349.992V29.0469H316.789Z" fill="black"/>
<path fill-rule="evenodd" clip-rule="evenodd" d="M301.805 0.703125V4.65625H285.203V32H281.25V4.65625H264.648V0.703125H301.805ZM282.25 3.65625V31H284.203V3.65625H300.805V1.70312H265.648V3.65625H282.25Z" fill="black"/>
<path fill-rule="evenodd" clip-rule="evenodd" d="M219.426 29.754C217.87 28.1982 217.18 25.9458 217.18 23.1875V9.51562C217.18 6.75731 217.87 4.50491 219.426 2.94914C220.981 1.39338 223.234 0.703125 225.992 0.703125H245.523C248.282 0.703125 250.534 1.39338 252.09 2.94914C253.646 4.50491 254.336 6.75731 254.336 9.51562V23.1875C254.336 25.9458 253.646 28.1982 252.09 29.754C250.534 31.3097 248.282 32 245.523 32H225.992C223.234 32 220.981 31.3097 219.426 29.754ZM222.305 26.8749C223.028 27.5978 224.193 28.0469 225.992 28.0469H245.523C247.322 28.0469 248.488 27.5978 249.211 26.8749C249.934 26.152 250.383 24.9865 250.383 23.1875V9.51562C250.383 7.71664 249.934 6.55108 249.211 5.8282C248.488 5.10532 247.322 4.65625 245.523 4.65625H225.992C224.193 4.65625 223.028 5.10532 222.305 5.8282C221.582 6.55108 221.133 7.71664 221.133 9.51562V23.1875C221.133 24.9865 221.582 26.152 222.305 26.8749ZM218.18 23.1875C218.18 28.3958 220.784 31 225.992 31H245.523C250.732 31 253.336 28.3958 253.336 23.1875V9.51562C253.336 4.30729 250.732 1.70312 245.523 1.70312H225.992C220.784 1.70312 218.18 4.30729 218.18 9.51562V23.1875ZM225.992 29.0469C222.086 29.0469 220.133 27.0938 220.133 23.1875V9.51562C220.133 5.60938 222.086 3.65625 225.992 3.65625H245.523C249.43 3.65625 251.383 5.60938 251.383 9.51562V23.1875C251.383 27.0938 249.43 29.0469 245.523 29.0469H225.992Z" fill="black"/>
<path fill-rule="evenodd" clip-rule="evenodd" d="M203.273 32H199.32V23.1875C199.32 21.3885 198.871 20.223 198.148 19.5001C197.425 18.7772 196.26 18.3281 194.461 18.3281H170.07V32H166.117V0.703125H194.461C197.219 0.703125 199.472 1.39338 201.027 2.94914C202.583 4.50491 203.273 6.75731 203.273 9.51562C203.273 12.465 202.48 14.8177 200.748 16.3516C202.48 17.8854 203.273 20.2382 203.273 23.1875V32ZM199.93 16.9693C199.649 16.738 199.343 16.5321 199.012 16.3516C199.343 16.171 199.649 15.9651 199.93 15.7338C201.492 14.4469 202.273 12.3742 202.273 9.51562C202.273 4.30729 199.669 1.70312 194.461 1.70312H167.117V31H169.07V17.3281H194.461C198.367 17.3281 200.32 19.2812 200.32 23.1875V31H202.273V23.1875C202.273 20.3289 201.492 18.2562 199.93 16.9693ZM198.148 5.8282C197.425 5.10532 196.26 4.65625 194.461 4.65625H170.07V14.375H194.461C196.26 14.375 197.425 13.9259 198.148 13.203C198.871 12.4802 199.32 11.3146 199.32 9.51562C199.32 7.71664 198.871 6.55108 198.148 5.8282ZM194.461 15.375C198.367 15.375 200.32 13.4219 200.32 9.51562C200.32 5.60938 198.367 3.65625 194.461 3.65625H169.07V15.375H194.461Z" fill="black"/>
<path fill-rule="evenodd" clip-rule="evenodd" d="M119.594 32H115.641V0.703125H143.984C146.743 0.703125 148.995 1.39338 150.551 2.94914C152.107 4.50491 152.797 6.75731 152.797 9.51562C152.797 12.2739 152.107 14.5263 150.551 16.0821C148.995 17.6379 146.743 18.3281 143.984 18.3281H119.594V32ZM118.594 17.3281H143.984C149.193 17.3281 151.797 14.724 151.797 9.51562C151.797 4.30729 149.193 1.70312 143.984 1.70312H116.641V31H118.594V17.3281ZM147.672 5.8282C146.949 5.10532 145.783 4.65625 143.984 4.65625H119.594V14.375H143.984C145.783 14.375 146.949 13.9259 147.672 13.203C148.395 12.4802 148.844 11.3146 148.844 9.51562C148.844 7.71664 148.395 6.55108 147.672 5.8282ZM143.984 15.375C147.891 15.375 149.844 13.4219 149.844 9.51562C149.844 5.60938 147.891 3.65625 143.984 3.65625H118.594V15.375H143.984Z" fill="black"/>
<path fill-rule="evenodd" clip-rule="evenodd" d="M102.633 28.0469V32H65.4766V0.703125H102.633V4.65625H69.4297V14.375H100.68V18.3281H69.4297V28.0469H102.633ZM68.4297 29.0469V17.3281H99.6797V15.375H68.4297V3.65625H101.633V1.70312H66.4766V31H101.633V29.0469H68.4297Z" fill="black"/>
<path fill-rule="evenodd" clip-rule="evenodd" d="M28.6175 18.6953L34.3206 27.8359L50.5902 1.70312H52.8753L34.3206 31.4883L27.4847 20.5117L20.6488 31.4883L2.09408 1.70312H4.37924L20.6488 27.8359L26.3519 18.6953L15.766 1.70312H18.0511L27.4847 16.8594L36.9183 1.70312H39.2035L28.6175 18.6953ZM27.4847 14.967L36.3628 0.703125H41.0046L29.796 18.6949L34.3197 25.9453L50.0348 0.703125H54.6764L34.3205 33.3797L27.4847 22.4034L20.6489 33.3797L0.292969 0.703125H4.93463L20.6497 25.9453L25.1735 18.6949L13.9648 0.703125H18.6066L27.4847 14.967Z" fill="black"/>
</svg>
