<?xml version="1.0" encoding="UTF-8"?>
<svg id="Vrstva_1" xmlns="http://www.w3.org/2000/svg" version="1.1" viewBox="0 0 468.8 40.5">
  <!-- Generator: Adobe Illustrator 29.3.1, SVG Export Plug-In . SVG Version: 2.1.0 Build 151)  -->
  <defs>
    <style>
      .st0 {
        isolation: isolate;
      }

      .st1 {
        fill: none;
        stroke: #000;
        stroke-miterlimit: 10;
        stroke-width: 2px;
      }
    </style>
  </defs>
  <g class="st0">
    <g class="st0">
      <path d="M27.4,25.2l-6.8,11L2,6.4h2.3l16.3,26.1,5.7-9.1L15.6,6.4h2.3l9.4,15.2,9.4-15.2h2.3l-10.6,17,5.7,9.1L50.5,6.4h2.3l-18.6,29.8-6.8-11Z"/>
    </g>
    <g class="st0">
      <path class="st1" d="M27.4,25.2l-6.8,11L2,6.4h2.3l16.3,26.1,5.7-9.1L15.6,6.4h2.3l9.4,15.2,9.4-15.2h2.3l-10.6,17,5.7,9.1L50.5,6.4h2.3l-18.6,29.8-6.8-11Z"/>
    </g>
    <g class="st0">
      <path d="M70.3,33.7h33.2v2h-35.2V6.4h35.2v2h-33.2v11.7h31.2v2h-31.2v11.7Z"/>
    </g>
    <g class="st0">
      <path class="st1" d="M70.3,33.7h33.2v2h-35.2V6.4h35.2v2h-33.2v11.7h31.2v2h-31.2v11.7Z"/>
    </g>
    <g class="st0">
      <path d="M147.9,6.4c5.2,0,7.8,2.6,7.8,7.8s-2.6,7.8-7.8,7.8h-25.4v13.7h-2V6.4h27.3ZM153.7,14.2c0-3.9-2-5.9-5.9-5.9h-25.4v11.7h25.4c3.9,0,5.9-2,5.9-5.9Z"/>
    </g>
    <g class="st0">
      <path class="st1" d="M147.9,6.4c5.2,0,7.8,2.6,7.8,7.8s-2.6,7.8-7.8,7.8h-25.4v13.7h-2V6.4h27.3ZM153.7,14.2c0-3.9-2-5.9-5.9-5.9h-25.4v11.7h25.4c3.9,0,5.9-2,5.9-5.9Z"/>
    </g>
    <g class="st0">
      <path d="M200.4,6.4c5.2,0,7.8,2.6,7.8,7.8s-1.1,5.7-3.3,6.8c2.2,1.2,3.3,3.5,3.3,6.8v7.8h-2v-7.8c0-3.9-2-5.9-5.9-5.9h-25.4v13.7h-2V6.4h27.3ZM206.2,14.2c0-3.9-2-5.9-5.9-5.9h-25.4v11.7h25.4c3.9,0,5.9-2,5.9-5.9Z"/>
    </g>
    <g class="st0">
      <path class="st1" d="M200.4,6.4c5.2,0,7.8,2.6,7.8,7.8s-1.1,5.7-3.3,6.8c2.2,1.2,3.3,3.5,3.3,6.8v7.8h-2v-7.8c0-3.9-2-5.9-5.9-5.9h-25.4v13.7h-2V6.4h27.3ZM206.2,14.2c0-3.9-2-5.9-5.9-5.9h-25.4v11.7h25.4c3.9,0,5.9-2,5.9-5.9Z"/>
    </g>
    <g class="st0">
      <path d="M233.9,35.7c-5.2,0-7.8-2.6-7.8-7.8v-13.7c0-5.2,2.6-7.8,7.8-7.8h19.5c5.2,0,7.8,2.6,7.8,7.8v13.7c0,5.2-2.6,7.8-7.8,7.8h-19.5ZM228,27.8c0,3.9,2,5.9,5.9,5.9h19.5c3.9,0,5.9-2,5.9-5.9v-13.7c0-3.9-2-5.9-5.9-5.9h-19.5c-3.9,0-5.9,2-5.9,5.9v13.7Z"/>
    </g>
    <g class="st0">
      <path class="st1" d="M233.9,35.7c-5.2,0-7.8-2.6-7.8-7.8v-13.7c0-5.2,2.6-7.8,7.8-7.8h19.5c5.2,0,7.8,2.6,7.8,7.8v13.7c0,5.2-2.6,7.8-7.8,7.8h-19.5ZM228,27.8c0,3.9,2,5.9,5.9,5.9h19.5c3.9,0,5.9-2,5.9-5.9v-13.7c0-3.9-2-5.9-5.9-5.9h-19.5c-3.9,0-5.9,2-5.9,5.9v13.7Z"/>
    </g>
    <g class="st0">
      <path d="M310.7,6.4v2h-16.6v27.3h-2V8.3h-16.6v-2h35.2Z"/>
    </g>
    <g class="st0">
      <path class="st1" d="M310.7,6.4v2h-16.6v27.3h-2V8.3h-16.6v-2h35.2Z"/>
    </g>
    <g class="st0">
      <path d="M328.7,33.7h33.2v2h-35.2V6.4h35.2v2h-33.2v11.7h31.2v2h-31.2v11.7Z"/>
    </g>
    <g class="st0">
      <path class="st1" d="M328.7,33.7h33.2v2h-35.2V6.4h35.2v2h-33.2v11.7h31.2v2h-31.2v11.7Z"/>
    </g>
    <g class="st0">
      <path d="M405,33.7c3.9,0,5.9-2,5.9-5.9h2c0,5.2-2.6,7.8-7.8,7.8h-19.5c-5.2,0-7.8-2.6-7.8-7.8v-13.7c0-5.2,2.6-7.8,7.8-7.8h19.5c5.2,0,7.8,2.6,7.8,7.8h-2c0-3.9-2-5.9-5.9-5.9h-19.5c-3.9,0-5.9,2-5.9,5.9v13.7c0,3.9,2,5.9,5.9,5.9h19.5Z"/>
      <path d="M432.7,22v13.7h-2V6.4h2v13.7h31.2V6.4h2v29.3h-2v-13.7h-31.2Z"/>
    </g>
    <g class="st0">
      <path class="st1" d="M405,33.7c3.9,0,5.9-2,5.9-5.9h2c0,5.2-2.6,7.8-7.8,7.8h-19.5c-5.2,0-7.8-2.6-7.8-7.8v-13.7c0-5.2,2.6-7.8,7.8-7.8h19.5c5.2,0,7.8,2.6,7.8,7.8h-2c0-3.9-2-5.9-5.9-5.9h-19.5c-3.9,0-5.9,2-5.9,5.9v13.7c0,3.9,2,5.9,5.9,5.9h19.5Z"/>
      <path class="st1" d="M432.7,22v13.7h-2V6.4h2v13.7h31.2V6.4h2v29.3h-2v-13.7h-31.2Z"/>
    </g>
  </g>
</svg>