<?xml version="1.0" encoding="UTF-8"?><svg id="Vrstva_1" xmlns="http://www.w3.org/2000/svg" viewBox="0 0 215.18 93.55"><defs><style>.cls-1{fill:#030303;}.cls-2{isolation:isolate;}.cls-3{fill:none;}.cls-3,.cls-4{stroke:#000;stroke-miterlimit:10;}</style></defs><g class="cls-2"><g class="cls-2"><g class="cls-2"><g class="cls-2"><path class="cls-4" d="M22.94,48.55l-3.1,4.98-8.42-13.52h1.04l7.38,11.86,2.59-4.15-4.8-7.71h1.04l4.28,6.88,4.28-6.88h1.04l-4.8,7.71,2.59,4.15,7.38-11.86h1.04l-8.42,13.52-3.1-4.98Z"/><path class="cls-4" d="M41.52,52.42h15.07v.89h-15.95v-13.29h15.95v.89h-15.07v5.32h14.18v.89h-14.18v5.32Z"/><path class="cls-4" d="M75.81,40.01c2.36,0,3.55,1.18,3.55,3.55s-1.18,3.55-3.55,3.55h-11.52v6.2h-.89v-13.29h12.41ZM78.47,43.56c0-1.77-.89-2.66-2.66-2.66h-11.52v5.32h11.52c1.77,0,2.66-.89,2.66-2.66Z"/><path class="cls-4" d="M98.72,40.01c2.36,0,3.55,1.18,3.55,3.55,0,1.53-.49,2.56-1.48,3.1.99.54,1.48,1.57,1.48,3.1v3.55h-.89v-3.55c0-1.77-.89-2.66-2.66-2.66h-11.52v6.2h-.89v-13.29h12.41ZM101.38,43.56c0-1.77-.89-2.66-2.66-2.66h-11.52v5.32h11.52c1.77,0,2.66-.89,2.66-2.66Z"/><path class="cls-4" d="M113.03,53.31c-2.36,0-3.55-1.18-3.55-3.55v-6.2c0-2.36,1.18-3.55,3.55-3.55h8.86c2.36,0,3.55,1.18,3.55,3.55v6.2c0,2.36-1.18,3.55-3.55,3.55h-8.86ZM110.37,49.76c0,1.77.89,2.66,2.66,2.66h8.86c1.77,0,2.66-.89,2.66-2.66v-6.2c0-1.77-.89-2.66-2.66-2.66h-8.86c-1.77,0-2.66.89-2.66,2.66v6.2Z"/><path class="cls-4" d="M146.99,40.01v.89h-7.53v12.41h-.89v-12.41h-7.53v-.89h15.95Z"/><path class="cls-4" d="M154.25,52.42h15.07v.89h-15.95v-13.29h15.95v.89h-15.07v5.32h14.18v.89h-14.18v5.32Z"/><path class="cls-4" d="M187.96,52.42c1.77,0,2.66-.89,2.66-2.66h.89c0,2.36-1.18,3.55-3.55,3.55h-8.86c-2.36,0-3.55-1.18-3.55-3.55v-6.2c0-2.36,1.18-3.55,3.55-3.55h8.86c2.36,0,3.55,1.18,3.55,3.55h-.89c0-1.77-.89-2.66-2.66-2.66h-8.86c-1.77,0-2.66.89-2.66,2.66v6.2c0,1.77.89,2.66,2.66,2.66h8.86Z"/><path class="cls-4" d="M199.61,47.11v6.2h-.89v-13.29h.89v6.2h14.18v-6.2h.89v13.29h-.89v-6.2h-14.18Z"/></g></g></g><g class="cls-2"><g class="cls-2"><g class="cls-2"><path class="cls-3" d="M22.94,48.55l-3.1,4.98-8.42-13.52h1.04l7.38,11.86,2.59-4.15-4.8-7.71h1.04l4.28,6.88,4.28-6.88h1.04l-4.8,7.71,2.59,4.15,7.38-11.86h1.04l-8.42,13.52-3.1-4.98Z"/><path class="cls-3" d="M41.52,52.42h15.07v.89h-15.95v-13.29h15.95v.89h-15.07v5.32h14.18v.89h-14.18v5.32Z"/><path class="cls-3" d="M75.81,40.01c2.36,0,3.55,1.18,3.55,3.55s-1.18,3.55-3.55,3.55h-11.52v6.2h-.89v-13.29h12.41ZM78.47,43.56c0-1.77-.89-2.66-2.66-2.66h-11.52v5.32h11.52c1.77,0,2.66-.89,2.66-2.66Z"/><path class="cls-3" d="M98.72,40.01c2.36,0,3.55,1.18,3.55,3.55,0,1.53-.49,2.56-1.48,3.1.99.54,1.48,1.57,1.48,3.1v3.55h-.89v-3.55c0-1.77-.89-2.66-2.66-2.66h-11.52v6.2h-.89v-13.29h12.41ZM101.38,43.56c0-1.77-.89-2.66-2.66-2.66h-11.52v5.32h11.52c1.77,0,2.66-.89,2.66-2.66Z"/><path class="cls-3" d="M113.03,53.31c-2.36,0-3.55-1.18-3.55-3.55v-6.2c0-2.36,1.18-3.55,3.55-3.55h8.86c2.36,0,3.55,1.18,3.55,3.55v6.2c0,2.36-1.18,3.55-3.55,3.55h-8.86ZM110.37,49.76c0,1.77.89,2.66,2.66,2.66h8.86c1.77,0,2.66-.89,2.66-2.66v-6.2c0-1.77-.89-2.66-2.66-2.66h-8.86c-1.77,0-2.66.89-2.66,2.66v6.2Z"/><path class="cls-3" d="M146.99,40.01v.89h-7.53v12.41h-.89v-12.41h-7.53v-.89h15.95Z"/><path class="cls-3" d="M154.25,52.42h15.07v.89h-15.95v-13.29h15.95v.89h-15.07v5.32h14.18v.89h-14.18v5.32Z"/><path class="cls-3" d="M187.96,52.42c1.77,0,2.66-.89,2.66-2.66h.89c0,2.36-1.18,3.55-3.55,3.55h-8.86c-2.36,0-3.55-1.18-3.55-3.55v-6.2c0-2.36,1.18-3.55,3.55-3.55h8.86c2.36,0,3.55,1.18,3.55,3.55h-.89c0-1.77-.89-2.66-2.66-2.66h-8.86c-1.77,0-2.66.89-2.66,2.66v6.2c0,1.77.89,2.66,2.66,2.66h8.86Z"/><path class="cls-3" d="M199.61,47.11v6.2h-.89v-13.29h.89v6.2h14.18v-6.2h.89v13.29h-.89v-6.2h-14.18Z"/></g></g></g></g><path class="cls-1" d="M43.5,34.68l.15-.02s.03,0,.05,0c4.29.33,12.96,2.59,16.55.18,1.05-.7,1.8-1.93,1.86-3.21,0-.12-.06-.22-.17-.26-2.88-1.06-6.11-2.04-8.87-3.29-5.03-2.28-5.6-5.67-8.85-9.48-2.58-3.03-5.88-5.14-9.86-5.69-.14-.02-.24-.15-.22-.29l.96-7.34c.03-.22-.22-.38-.41-.24C22.69,13.68,9.97,26.69,6.11,41.3c-3.6,13.6,1.33,29.41,16.71,31.9,15.28,2.47,19.56-8.77,31.38-14.21,13.6-6.25,29.21-4.43,38.36,8.07,0,0,0,.01.01.02l2.88,4.62c.12.19-.04.45-.26.39-7.14-2.05-18.33,1.79-25.61,7.24-3.62,2.71-6.45,6.18-10.3,8.68-10.4,6.75-24.6,7.4-35.57,1.53-1.57-.84-5.8-3.73-6.8-5.06,0,0,0,0,0,0-.19-.25.14-.56.37-.35,11.3,9.82,28.74,9.87,40.79,1.17,3.76-2.71,6.58-6.49,10.2-9.38.2-.16.07-.47-.18-.46-1.43.08-4.37.89-5.41,1.03-.19.03-.34-.16-.28-.34.3-.91,1.05-1.83,1.59-2.62.91-1.33,1.94-2.57,2.9-3.85.14-.19-.02-.45-.25-.41l-8.37,1.42c-.27.05-.42-.31-.19-.47l7.66-5.34c.21-.15.1-.47-.15-.47-.63,0-1.26.04-1.88,0-5.76-.33-7.87-.98-12.9,2.41-7.19,4.84-10.03,10.04-19.7,11.57C6.71,82.26-5.21,58.37,2.16,37.35,6.71,24.36,21.87,7.04,34.15.77c6.75-3.45,4.63,5.61,3.94,9.33-.02.12.04.24.15.28,2.5,1.06,4.97,2.56,6.84,4.54,2.9,3.08,4.31,7.3,7.53,10.1.02.02.04.03.06.04l11.15,5.22c.07.03.13.1.15.19.39,2.17-1.17,4.7-3,5.74-2.26,1.27-4.68,1.05-7.16.82-3.49-.32-6.91-1.14-10.33-1.84-.29-.06-.27-.48.02-.51h0Z"/></svg>